<svg aria-hidden="true" style="position:absolute;width:0;height:0;overflow:hidden" xmlns="http://www.w3.org/2000/svg"><defs><symbol id="icon-antenna" viewBox="0 0 32 32"><path fill="#212121" style="fill:var(--color1, #212121)" d="m30.773 22.098-8.443-8.505.937-4.615c.225.09.485.144.758.146h.007c1.192.014 2.17-.941 2.184-2.133s-.941-2.17-2.133-2.184c-1.192-.014-2.17.941-2.184 2.133v.026c0 .259.046.508.13.738l-.005-.015-4.96.605L8.973.161a.53.53 0 0 0-.376-.16.531.531 0 0 0-.373.155L6.711 1.66a.5335.5335 0 0 0 0 .754l.814.826c-3.153 5.798-2.129 12.978 2.519 17.663.043.041.092.074.146.098a2.986 2.986 0 0 0-.052.546v6.188h-6.4c-1.472.002-2.665 1.195-2.667 2.667v1.067c0 .295.239.533.533.533h24.533c.295 0 .533-.239.533-.533v-1.067c-.002-1.472-1.195-2.665-2.667-2.667h-6.4v-2.742c.915.201 1.968.317 3.047.32h.002c2.58-.003 5.005-.663 7.117-1.822l-.077.039.818.823a.534.534 0 0 0 .377.16.531.531 0 0 0 .373-.155l1.513-1.504a.5335.5335 0 0 0 0-.754zM23.28 6.233c.418-.415 1.093-.414 1.508.004s.414 1.093-.004 1.508c-.193.192-.459.31-.752.31h-.003c-.589-.003-1.064-.483-1.061-1.072.002-.294.122-.559.314-.751h-.002zm-1.256 3.505-.598 2.946-1.175-1.182 1.774-1.763zm-.605-.902-1.92 1.909-1.485-1.493 3.405-.415zM24.004 28.8c.884 0 1.6.716 1.6 1.6v.533H2.137V30.4c0-.884.716-1.6 1.6-1.6h20.267zm-7.467-2.133v1.067h-5.333v-1.067h5.333zM11.204 25.6v-4.053c0-1.294 1.196-2.347 2.667-2.347s2.667 1.053 2.667 2.347V25.6h-5.333zm6.4-1.696v-2.357c0-1.882-1.675-3.413-3.733-3.413h-.058c-1.353 0-2.54.707-3.213 1.771l-.009.016C6.533 15.647 5.62 9.276 8.312 4.034l18.602 18.708c-1.823.947-3.98 1.502-6.266 1.502-1.079 0-2.128-.124-3.136-.357l.093.018zm11.289-.684L7.836 2.039l.755-.752 7.935 7.98c.004 0 .006.007.01.01l13.115 13.191-.757.752z"/><path fill="#2196f3" style="fill:var(--color2, #2196f3)" d="M13.876 20.267h-.005c-.884-.001-1.601.714-1.602 1.598s.714 1.601 1.598 1.602h.005c.884.001 1.601-.714 1.602-1.598s-.714-1.601-1.598-1.602zm.373 1.978a.5297.5297 0 0 1-.376.155h-.002a.5343.5343 0 0 1-.531-.536.5344.5344 0 0 1 .53-.531c.295.002.532.241.53.536a.5333.5333 0 0 1-.157.375h.005z"/></symbol><symbol id="icon-astronaut" viewBox="0 0 32 32"><path fill="#2196f3" style="fill:var(--color2, #2196f3)" d="M31.974 4.524c-.064-.191-.227-.332-.427-.362h-.003l-1.91-.278-.855-1.731c-.179-.365-.777-.365-.956 0l-.855 1.731-1.91.278a.5352.5352 0 0 0-.43.359l-.001.004a.5342.5342 0 0 0 .135.547l1.383 1.348-.326 1.903c-.034.2.048.402.212.522a.528.528 0 0 0 .313.102c.091 0 .177-.023.252-.063l-.003.001 1.709-.899 1.709.899c.078.041.164.061.249.061.11 0 .221-.034.314-.102.134-.098.22-.254.22-.431 0-.032-.003-.063-.008-.094v.003l-.326-1.903 1.383-1.348a.5348.5348 0 0 0 .134-.55l.001.004zm-2.463 1.327a.5331.5331 0 0 0-.161.382c0 .032.003.063.008.094v-.003l.191 1.114-1-.526a.5203.5203 0 0 0-.248-.061H28.3c-.085 0-.17.02-.249.061l-1.001.526.191-1.114a.5021.5021 0 0 0 .008-.09c0-.15-.062-.285-.161-.382l-.81-.789 1.119-.163a.5335.5335 0 0 0 .4-.289l.001-.003.5-1.013.5 1.013c.078.157.228.267.402.292l1.119.163-.809.789zm-3.377 14.671h-1.067v1.067h1.067v-1.067zm0 2.134h-1.067v1.067h1.067v-1.067zm1.066-1.067h-1.067v1.067H27.2v-1.067zm-2.133 0H24v1.067h1.067v-1.067zm-2.667 4.8h-1.067v1.067H22.4v-1.067zm0 2.133h-1.067v1.067H22.4v-1.067zm1.067-1.066H22.4v1.067h1.067v-1.067zm-2.134 0h-1.067v1.067h1.067v-1.067zM16 24.256h-1.067v1.067H16v-1.067zm0 2.133h-1.067v1.067H16v-1.067zm1.067-1.067H16v1.067h1.067v-1.067zm-2.134 0h-1.067v1.067h1.067v-1.067zm-9.066-19.2H4.8v1.067h1.067V6.122zm0 2.133H4.8v1.067h1.067V8.255z"/><path fill="#2196f3" style="fill:var(--color2, #2196f3)" d="M6.933 7.189H5.866v1.067h1.067V7.189zm-2.133 0H3.733v1.067H4.8V7.189z"/><path fill="#212121" style="fill:var(--color1, #212121)" d="M24.715 14.159c-.287-.388-.709-.637-1.188-.705-.481-.068-.956.058-1.34.352l-1.252.96-1.898 1.417-1.358-.541c2.421-1.086 4.114-3.508 4.114-6.32 0-3.823-3.123-6.933-6.961-6.933s-6.961 3.11-6.961 6.933c0 1.386.414 2.674 1.12 3.758l-2.769-.024c-.009 0-.015.004-.023.005a.5547.5547 0 0 0-.159.032l.004-.001c-.013.005-.026.008-.038.013-.006.003-.013.003-.019.006l-3.233 1.596c-.001 0-.001 0-.001.001l-1.893.911a.4288.4288 0 0 0-.064.036l.001-.001c-.755.502-1.012 1.489-.598 2.295.22.429.595.745 1.056.889.161.052.347.083.539.083.29 0 .577-.071.839-.211l1.388-.738 2.264-1.169 1.357-.008L2.2 22.211c-.001.001-.001.001-.002.001L.859 23.545c-.316.315-.49.732-.49 1.178s.174.863.49 1.179c.325.323.752.485 1.179.485s.854-.162 1.18-.485l1.314-1.309 1.741-1.3.901.897-1.762 1.754c0 .001-.001.001-.002.001l-1.339 1.333c-.316.315-.49.732-.49 1.178s.174.863.49 1.179c.325.323.753.485 1.18.485s.855-.162 1.18-.485l3.482-3.467c.001-.001.001-.001.001-.002l1.01-1-.004-.004c.006-.006.015-.009.022-.015l5.166-5.658 3.471.494c.022.003.048.005.073.005h.002c.065 0 .127-.015.187-.038.018-.006.033-.015.05-.023.019-.01.039-.015.058-.027l3.213-2.133c.012-.008.018-.021.029-.029.013-.01.029-.014.041-.026l1.271-1.191c.662-.62.753-1.635.212-2.362zM2.13 17.77a.714.714 0 0 1-.558.052.7167.7167 0 0 1-.427-.358.714.714 0 0 1 .214-.902l1.314-.632.449 1.312-.992.528zm3.498-1.828-1.548.8-.439-1.283 2.027-1.001-.04 1.484zm15.099-6.62c0 .918-.219 1.785-.599 2.559l-4.181-1.899c-.044-.573-.341-1.075-.788-1.388l1.464-4.86c2.378.756 4.105 2.974 4.105 5.588zm-11.789 0c0-3.235 2.644-5.867 5.894-5.867.253 0 .5.021.745.052l-1.432 4.754c-.019-.001-.037-.006-.057-.006-1.033 0-1.873.837-1.873 1.867s.84 1.867 1.873 1.867c.694 0 1.294-.383 1.618-.945l3.862 1.755c-1.075 1.446-2.795 2.39-4.737 2.39-3.25 0-5.894-2.632-5.894-5.867zm5.956.8c0 .441-.362.8-.806.8s-.806-.359-.806-.8c0-.441.362-.8.806-.8s.806.359.806.8zM2.465 25.146c-.236.234-.619.234-.854.001-.114-.114-.176-.263-.176-.423s.062-.309.176-.421l.962-.958.851.848-.959.955zm3.214 3.734c-.236.234-.619.235-.855.001-.114-.114-.176-.263-.176-.423s.062-.309.176-.421l.963-.959.852.848-.96.955zm3.481-3.469c-.001 0-.001 0-.002.001l-1.765 1.76-.852-.848 1.763-1.756c.001-.001.001-.001.002-.001.04-.04.065-.088.09-.135.007-.014.02-.026.026-.04.017-.041.019-.085.026-.129.003-.025.014-.047.014-.073 0-.036-.013-.07-.02-.106-.006-.032-.006-.065-.019-.095-.02-.05-.055-.094-.091-.138-.01-.012-.014-.027-.025-.038h-.001c-.001 0-.001-.002-.001-.002l-1.607-1.6c-.017-.017-.039-.024-.058-.038a.5067.5067 0 0 0-.087-.058c-.03-.015-.061-.024-.093-.033a.5073.5073 0 0 0-.103-.02.5002.5002 0 0 0-.095.005.5307.5307 0 0 0-.104.02c-.034.011-.063.027-.094.045-.02.011-.042.015-.061.029L4.23 23.485l-.901-.897 2.399-2.386 4.361 4.289-.928.919zm6.819-7.017c-.015-.002-.03.004-.045.003-.008 0-.017-.001-.026-.001-.031 0-.062.003-.092.008h.003a.5364.5364 0 0 0-.088.021c-.034.012-.065.028-.097.047s-.059.039-.084.062c-.013.011-.028.017-.04.029l-4.698 5.146-4.328-4.257 2.833-2.818c.209-.208.21-.546.002-.755a.5314.5314 0 0 0-.381-.156v-.001l-2.219.013.028-1.607 3.104.027c1.265 1.294 3.029 2.101 4.981 2.101.437 0 .864-.045 1.279-.123.04.032.079.065.13.085l2.41.96.331 1.644-3.003-.427zm4.041.178-.313-1.558 1.446-1.08.947 1.257-2.08 1.381zm3.754-2.831-.838.785-.931-1.236.831-.637c.155-.119.351-.168.543-.143.193.027.364.128.48.284.217.292.18.699-.085.947z"/><path fill="#212121" style="fill:var(--color1, #212121)" d="m13.602 18.544-2.143-2.133c-.207-.207-.545-.207-.753 0l-2.142 2.133a.532.532 0 0 0-.157.378c0 .142.056.278.157.378l2.142 2.133c.104.103.241.155.377.155s.273-.052.376-.155l2.143-2.133a.532.532 0 0 0 .157-.378c0-.142-.057-.278-.157-.378zm-2.519 1.759-1.387-1.381 1.387-1.381 1.387 1.381-1.387 1.381zm6.081-15.232-.258 1.036c.071.018 1.738.452 1.738 2.149h1.067c0-2.017-1.666-2.965-2.547-3.185zm2.547 4.251h-1.067v1.067h1.067V9.322z"/></symbol><symbol id="icon-brand" viewBox="0 0 43 32"><path fill="#afb1b8" style="fill:var(--color3, #afb1b8)" d="M3.239 26.373c.166.188.254.424.25.665a.818.818 0 0 1 .001.051.96.96 0 0 1-.093.415l.003-.006c-.067.145-.169.275-.298.38-.322.223-.722.332-1.125.307H0V23.97h1.936c.382-.023.761.076 1.073.28.125.096.224.217.289.354s.095.286.086.435c.011.233-.068.461-.225.645-.15.168-.358.284-.589.329.262.044.499.172.668.36zM.92 25.737h.828c.188.013.375-.037.526-.14.06-.05.108-.112.14-.184l.001-.003a.4547.4547 0 0 0 .036-.227v.002c.001-.011.001-.023.001-.036 0-.068-.014-.133-.04-.191l.001.003a.5184.5184 0 0 0-.138-.187l-.001-.001c-.156-.106-.349-.156-.542-.142H.918v1.106zm1.435 1.616a.5265.5265 0 0 0 .151-.19l.001-.003a.475.475 0 0 0 .044-.202c0-.012 0-.023-.001-.034v.002c.001-.009.001-.019.001-.03 0-.075-.017-.147-.047-.211l.001.003a.5461.5461 0 0 0-.154-.194l-.001-.001c-.162-.11-.361-.164-.562-.152H.92V27.5h.879c.198.011.394-.041.556-.146zm4.842.832L6.12 26.538h-.405v1.647h-.927V23.97h1.754c.442-.028.879.1 1.221.358.245.229.393.53.417.85s-.078.637-.287.894c-.216.227-.512.378-.837.428l1.147 1.684H7.195zm-1.482-2.222h.758c.526 0 .789-.213.789-.638.001-.011.001-.023.001-.035a.578.578 0 0 0-.045-.224l.001.004a.6267.6267 0 0 0-.151-.218c-.166-.127-.381-.188-.596-.171h-.767l.009 1.283zm6.547 1.374h-1.847l-.326.848h-.972l1.696-4.168h1.05l1.689 4.168h-.972l-.319-.848zm-.247-.639-.675-1.779-.675 1.779h1.349zm6.587 1.487h-.92l-2.062-2.867v2.867h-.918V23.97h.918l2.062 2.883V23.97h.92v4.215zm5.25-1.009c-.19.318-.48.577-.832.743-.4.185-.845.276-1.293.266H20.09V23.97h1.637c.448-.011.891.078 1.293.259.352.163.642.419.832.735.189.343.288.722.288 1.106s-.099.763-.288 1.106zm-1.053-.101c.263-.28.407-.637.407-1.006s-.144-.726-.407-1.006c-.317-.254-.731-.382-1.152-.358h-.639v2.729h.639c.42.024.834-.105 1.152-.358zM12.838.522s11.873 4.104 11.621 10.043V20.61s-11.864-4.106-11.617-10.045L12.837.522zm22.199 17.737c2.242-1.413 4.836-2.288 7.544-2.545v-3.145c-3.12 1.101-5.766 3.097-7.544 5.69z"/><path fill="#afb1b8" style="fill:var(--color3, #afb1b8)" d="M33.69 19.206c1.835-3.384 5.017-5.995 8.891-7.296V2.849S25.672 8.695 26.03 17.153v14.302s.753-.262 1.939-.752c0-.457 0-.918.054-1.382.35-3.926 2.389-7.565 5.668-10.115z"/><path fill="#afb1b8" style="fill:var(--color3, #afb1b8)" d="M32.081 24.52c.099-1.082.309-2.076.619-3.025l-.027.097c-2.042 2.203-3.278 4.936-3.536 7.815-.025.272-.038.544-.045.824.96-.422 2.078-.949 3.252-1.569-.202-.878-.318-1.886-.318-2.922 0-.429.02-.854.059-1.273l-.004.054zm.673.051c-.033.348-.052.752-.052 1.16 0 .917.095 1.811.276 2.674l-.015-.084c4.62-2.531 9.811-6.442 9.611-11.168v-.412c-3.301.338-6.389 1.659-8.79 3.76-.562 1.302-.909 2.674-1.03 4.069z"/></symbol><symbol id="icon-clock-1" viewBox="0 0 32 32"><path fill="#212121" style="fill:var(--color1, #212121)" d="M31.297 15.301C31.295 6.849 24.442-.002 15.989 0S.686 6.855.688 15.308c.001 6.658 4.307 12.551 10.649 14.576.061.019.124.029.187.029.126 0 .245-.035.346-.095l-.003.002a.639.639 0 0 0 .282-.352l.001-.005 3.865-12.25c1.057-.005 1.909-.866 1.903-1.923s-.866-1.909-1.923-1.903c-.299.001-.581.072-.831.196l.011-.005-5.106-5.107a.6372.6372 0 0 0-.902.016.637.637 0 0 0 0 .886l5.103 5.109c-.392.799-.168 1.764.536 2.309l-3.683 11.673C3.845 25.783.119 17.71 2.8 10.432S13.554-.572 20.832 2.109c7.278 2.681 11.004 10.754 8.323 18.032-1.345 3.581-4.003 6.406-7.374 7.938l-.088.036-.398-1.874a.638.638 0 0 0-.756-.492.639.639 0 0 0-.293.149l.001-.001-3.837 3.426a.6366.6366 0 0 0-.052.9c.076.085.174.149.283.184l4.899 1.563c.335.108.694-.077.802-.412a.6375.6375 0 0 0 .031-.195c0-.047-.005-.092-.015-.136l.001.004-.391-1.839c5.664-2.388 9.342-7.942 9.329-14.089zm-15.305-.637c.352 0 .638.286.638.638s-.286.638-.638.638c-.352 0-.638-.285-.638-.638s.285-.638.638-.638zm2.101 14.864 2.184-1.948.603 2.84-2.787-.892z"/><path fill="#2196f3" style="fill:var(--color2, #2196f3)" d="M15.354 3.185V4.46c0 .352.285.638.638.638s.638-.285.638-.638V3.185c0-.352-.286-.638-.638-.638s-.638.286-.638.638zM3.876 14.664c-.352 0-.638.286-.638.638s.285.638.638.638h1.275c.352 0 .638-.285.638-.638s-.285-.638-.638-.638H3.876zm24.232 1.275c.352 0 .638-.285.638-.638s-.285-.638-.638-.638h-1.275c-.352 0-.638.286-.638.638s.286.638.638.638h1.275z"/></symbol><symbol id="icon-comp" viewBox="0 0 25 32"><path fill="#afb1b8" style="fill:var(--color3, #afb1b8)" d="M10.531 1.806h-.084a9.9847 9.9847 0 0 0-.388-.014h-.28c-.244 0-.494.006-.741.019-.008-.001-.018-.001-.028-.001s-.02 0-.029.001h.001c-2.376.139-4.581.733-6.575 1.696l.104-.045-.266.128v13.625l.623-.211c.546-.188 1.129-.357 1.731-.513 1.488-.398 3.202-.638 4.967-.662h.014v1.79c-.236.002-.465.009-.692.02l.037-.002h-.051c-1.399.079-2.71.289-3.971.619l.139-.031c-1.734.441-3.254 1.05-4.666 1.83l.1-.051V2.529C1.855 1.709 3.45 1.041 5.139.608L5.266.58C6.619.216 8.174.004 9.777-.002h.267c.314.008.621.022.909.044.829.059 1.597.187 2.34.378l-.09-.02v1.762c-.628-.154-1.373-.271-2.134-.326l-.045-.003-.045-.004c-.152-.013-.304-.026-.446-.026zm3.102 1.801c.391.03.796.044 1.205.044 1.689-.006 3.324-.228 4.882-.639l-.135.03c1.734-.443 3.253-1.052 4.665-1.832l-.101.051v17.163c-1.379.819-2.975 1.487-4.665 1.921l-.127.028c-1.353.362-2.908.574-4.511.581h-.115c-1.177 0-2.319-.147-3.409-.425l.095.021V3.275c.265.061.537.117.814.164.455.077.934.133 1.401.167zm8.734.133-.623.21c-.376.138-.954.315-1.539.474l-.192.044c-1.551.415-3.332.657-5.169.663h-.004c-.406 0-.78-.011-1.141-.034l-.497-.033v14.017l.427.038c.395.034.803.052 1.214.052 1.45-.006 2.853-.198 4.189-.553l-.115.026c1.221-.31 2.281-.701 3.285-1.188l-.102.044.266-.128V3.742zM1.684 25.977a.915.915 0 0 0-.311-.212l-.006-.002a.9.9 0 0 0-.343-.067c-.012 0-.023 0-.035.001h.002-.014c-.139 0-.272.028-.393.078l.007-.003a.9312.9312 0 0 0-.311.205.8986.8986 0 0 0-.199.307l-.002.006c-.045.111-.072.24-.072.375v.012-.001 2.335c-.006.165.026.328.092.479.055.12.135.226.233.313.093.079.203.135.321.166.113.032.231.048.349.049h.009c.134 0 .26-.03.374-.084l-.005.002a.99.99 0 0 0 .311-.216c.084-.088.153-.192.201-.306l.002-.007a.9335.9335 0 0 0 .075-.368v-.266h-.61v.222c0 .07-.013.137-.037.198l.001-.004a.3669.3669 0 0 1-.089.131.396.396 0 0 1-.125.067l-.003.001a.4275.4275 0 0 1-.127.022.3093.3093 0 0 1-.162-.025l.002.001a.319.319 0 0 1-.126-.1l-.001-.001a.5477.5477 0 0 1-.081-.289c0-.008 0-.017.001-.025v.001-2.2c0-.118.028-.23.077-.33l-.002.004a.321.321 0 0 1 .127-.113l.002-.001c.039-.019.084-.03.132-.03.013 0 .026.001.039.002H.985h.012c.107 0 .201.051.26.131l.001.001c.063.082.101.187.101.301v.013-.001.202h.604v-.248c0-.143-.027-.28-.077-.406l.003.007a.9679.9679 0 0 0-.204-.329zm3.626-.027a1.083 1.083 0 0 0-.694-.257c-.131.001-.256.025-.372.068l.007-.002a.986.986 0 0 0-.323.192l.001-.001a.9667.9667 0 0 0-.234.321l-.002.006a1.074 1.074 0 0 0-.089.431v.022-.001 2.239c-.004.158.026.314.089.459.055.12.136.227.237.313a.939.939 0 0 0 .322.197c.117.043.24.065.364.066.131 0 .256-.024.372-.068l-.007.002c.127-.047.237-.114.331-.198l-.001.001a.958.958 0 0 0 .228-.307l.002-.006c.056-.127.089-.274.089-.43v-.03.002-2.26c0-.156-.033-.304-.092-.438l.003.007a1.027 1.027 0 0 0-.23-.327zm-.285 3.019c.001.01.001.022.001.034 0 .114-.047.216-.123.289a.4455.4455 0 0 1-.287.105c-.11 0-.21-.04-.288-.105l.001.001a.4001.4001 0 0 1-.123-.289c0-.012.001-.024.002-.036v.002-2.239c-.001-.01-.001-.022-.001-.034 0-.114.047-.216.123-.289a.4455.4455 0 0 1 .287-.105c.11 0 .21.04.288.105l-.001-.001c.076.073.123.176.123.29 0 .012-.001.024-.002.036v-.002 2.239zm5.047 1V25.73h-.587l-.771 2.244h-.011l-.777-2.244h-.581v4.239h.606V27.39h.011l.593 1.823h.302l.598-1.823h.011v2.579h.606zm3.441-3.942a.8458.8458 0 0 0-.337-.23l-.006-.002c-.124-.042-.267-.066-.416-.066h-.024.001-.9v4.239h.604v-1.656h.311c.188.009.376-.031.545-.116a.8794.8794 0 0 0 .329-.32l.002-.004c.067-.106.115-.23.138-.363l.001-.006c.021-.134.033-.288.033-.444v-.04.002c.001-.021.001-.045.001-.07 0-.19-.022-.375-.063-.552l.003.016a.906.906 0 0 0-.223-.39zm-.312 1.292a.5417.5417 0 0 1-.057.224l.001-.003a.3495.3495 0 0 1-.154.148l-.002.001a.6092.6092 0 0 1-.253.054c-.011 0-.022 0-.033-.001h.002-.275v-1.441h.311c.008 0 .018-.001.028-.001.089 0 .172.02.248.055l-.004-.002c.062.036.111.09.141.154l.001.002c.033.074.051.155.053.236v.282c0 .099.006.2 0 .291h-.006zm3.173-1.589h-.495l-.934 4.239h.604l.177-.911h.823l.177.911h.604l-.957-4.239zm-.557 2.751.297-1.537h.011l.296 1.537h-.604zm4.46-.197h-.011l-.912-2.554h-.581v4.239h.604V27.42h.012l.923 2.549h.568V25.73h-.604v2.554zm3.691-2.554-.486 1.685h-.012l-.486-1.685h-.64l.83 2.447v1.792h.604v-1.792l.83-2.447h-.64zM0 31.166h.291v.817h.198v-.817h.29v-.167H.001v.167zm2.447-.168-.381.984h.21l.081-.224h.392l.084.224h.215l-.391-.984h-.21zm-.031.595.134-.365.134.365h-.268zm2.45.027h.227v.127a.3778.3778 0 0 1-.233.083h-.014a.2466.2466 0 0 1-.194-.094.41.41 0 0 1-.074-.235c0-.008 0-.015.001-.023v.001c0-.219.095-.329.283-.329.006-.001.013-.001.021-.001.045 0 .086.014.12.038h-.001c.04.029.07.07.082.118v.001l.195-.038c-.042-.192-.181-.289-.417-.289h-.013a.492.492 0 0 0-.331.127.4818.4818 0 0 0-.111.17l-.001.003a.4794.4794 0 0 0-.031.169c0 .013 0 .025.001.038v-.002.023c0 .132.048.253.127.347l-.001-.001c.087.089.208.145.342.145.011 0 .022 0 .033-.001h-.001.016c.155 0 .296-.06.401-.157v-.388h-.427v.166zm2.471-.622h-.199v.984h.69v-.167h-.49v-.817zm2.089 0h-.199v.984h.199v-.984zm2.043.658-.403-.657h-.193v.984h.185v-.643l.395.643h.198v-.984h-.182v.657zm1.846-.107h.49v-.167h-.49v-.216h.528v-.167h-.727v.984h.747v-.167h-.548v-.266zm4.477-.162h-.388v-.388h-.198v.984h.198v-.43h.388v.43h.198v-.984h-.198v.388zm1.857.162h.492v-.167h-.492v-.216h.529v-.167h-.727v.984h.746v-.167h-.548v-.266zm2.519 0c.171-.027.258-.117.258-.274a.233.233 0 0 0-.096-.219h-.001a.555.555 0 0 0-.25-.059c-.013 0-.027 0-.04.001h.002-.417v.984h.198v-.412h.055c.039 0 .075.008.108.023l-.002-.001c.029.018.053.042.07.071l.001.001.215.313h.237l-.12-.192a.7042.7042 0 0 0-.215-.235l-.002-.002zm-.199-.136h-.146v-.247h.156a.5154.5154 0 0 1 .205.024l-.004-.001c.027.024.043.058.043.096 0 .043-.021.08-.052.104a.5387.5387 0 0 1-.165.025c-.013 0-.025 0-.038-.001h.002zm2.098.136h.49v-.167h-.49v-.216h.529v-.167h-.729v.984h.747v-.167h-.548v-.266z"/></symbol><symbol id="icon-compan" viewBox="0 0 67 32"><path fill="#afb1b8" style="fill:var(--color3, #afb1b8)" d="M33.724 15.224c-.315-.419-.466-.915-.43-1.414v-2.05c0-.628.142-1.106.428-1.433s.775-.489 1.469-.488c.652 0 1.115.139 1.389.417.299.355.444.789.411 1.226v.482h-1.167v-.488c.001-.019.001-.041.001-.064 0-.146-.013-.289-.037-.428l.002.015c-.017-.108-.076-.208-.167-.284-.12-.081-.271-.121-.423-.111-.16-.01-.318.031-.444.117-.102.084-.169.193-.193.313-.029.14-.046.301-.046.466v.043-.002 2.488c-.018.24.033.48.15.699.058.074.139.132.233.169.069.027.148.043.231.043.025 0 .049-.001.073-.004h-.003c.149.011.298-.03.413-.113.095-.082.156-.188.174-.302.023-.135.037-.289.037-.448 0-.018 0-.036-.001-.054v.003-.505h1.167v.461c.033.456-.109.909-.403 1.289-.268.305-.725.457-1.396.457s-1.179-.163-1.466-.501zm4.859.021c-.295-.319-.442-.784-.442-1.4v-2.157c0-.609.147-1.07.442-1.383s.788-.469 1.478-.467c.686 0 1.177.156 1.471.467.295.313.444.774.444 1.383v2.157c0 .609-.15 1.076-.449 1.397s-.788.482-1.466.482c-.679 0-1.181-.163-1.478-.48zm2.022-.518c.106-.2.154-.419.14-.638v-2.641c.014-.215-.034-.43-.138-.626-.059-.075-.142-.135-.238-.172a.6422.6422 0 0 0-.228-.042.755.755 0 0 0-.083.005h.003a.6443.6443 0 0 0-.313.038l.004-.002c-.097.037-.18.096-.24.172-.106.195-.154.41-.14.626V14.1c-.015.219.033.439.14.638.068.067.152.121.246.158s.196.056.3.056c.103 0 .206-.019.3-.056a.7279.7279 0 0 0 .246-.158v-.012zm2.775-4.826h1.256l.945 3.979.966-3.979h1.222l.123 5.743h-.904l-.097-3.992-.932 3.992h-.725l-.966-4.006-.089 4.006h-.913l.114-5.743zm5.921 0h1.957c1.127 0 1.691.544 1.691 1.631 0 1.041-.593 1.561-1.78 1.56h-.667v2.553h-1.208l.007-5.743zm1.672 2.455c.119.013.24.004.355-.028a.8658.8658 0 0 0 .311-.155l-.002.001c.139-.194.2-.422.174-.649.001-.019.001-.042.001-.064 0-.163-.022-.32-.062-.47l.003.013a.43.43 0 0 0-.089-.158.4934.4934 0 0 0-.15-.114l-.003-.001c-.14-.059-.303-.093-.474-.093-.023 0-.045.001-.068.002h.003-.469v1.716h.469zm3.718-2.455h1.297l1.331 5.743h-1.126l-.263-1.324h-1.157l-.271 1.324h-1.143l1.331-5.743zm1.109 3.754-.452-2.411-.452 2.411h.903zm2.595-3.754h.846l1.619 3.276V9.901h1.003v5.743h-.804l-1.628-3.42v3.42h-1.036l.002-5.743zm5.814 3.554-1.346-3.546h1.133l.821 2.277.771-2.277h1.109l-1.329 3.546v2.19h-1.16v-2.19zm-28.62 4.701v.3h-.986v2.334h-.413v-2.334h-.99v-.3h2.389zm3.09 2.634h-.327a.135.135 0 0 1-.081-.026.1465.1465 0 0 1-.053-.06v-.001l-.285-.626h-1.367l-.285.626a.1676.1676 0 0 1-.044.071.1453.1453 0 0 1-.083.025h-.326l1.208-2.634h.42l1.222 2.624zm-2-.978h1.14l-.483-1.072c-.031-.067-.061-.15-.086-.235l-.003-.014c-.017.05-.031.098-.046.14l-.044.11-.478 1.07zm4.083.72c.076.003.151.003.227 0a1.51 1.51 0 0 0 .203-.033l-.009.002c.069-.015.128-.031.184-.051l-.011.003c.053-.019.106-.042.162-.065v-.592h-.488a.1059.1059 0 0 1-.031-.005H41a.0857.0857 0 0 1-.03-.016.0595.0595 0 0 1-.018-.021.0475.0475 0 0 1-.006-.024V19.526h.937v1.01c-.147.092-.316.166-.497.212l-.012.003c-.085.023-.187.042-.292.053l-.01.001c-.104.011-.225.017-.348.017h-.021c-.212 0-.416-.036-.606-.102l.013.004c-.181-.063-.345-.156-.483-.275-.134-.12-.24-.262-.312-.417s-.111-.338-.111-.53v-.018.001-.017c0-.193.04-.377.112-.543l-.003.009c.069-.156.176-.298.312-.417.138-.119.302-.212.483-.273.186-.062.401-.098.624-.098h.025-.001.002c.118 0 .234.008.347.024l-.013-.002c.109.015.206.039.299.07l-.012-.003c.084.027.165.062.242.104.074.041.144.087.21.138l-.116.163a.1036.1036 0 0 1-.039.036h-.001a.1124.1124 0 0 1-.055.014.163.163 0 0 1-.076-.021h.001a1.4075 1.4075 0 0 1-.125-.066l.007.004a1.0977 1.0977 0 0 0-.154-.069l-.008-.002a1.396 1.396 0 0 0-.213-.057l-.009-.001a1.7612 1.7612 0 0 0-.291-.023h-.016.001-.015c-.161 0-.316.027-.461.076l.01-.003c-.134.047-.256.118-.355.209-.1.095-.177.206-.225.328-.051.13-.081.281-.081.439s.03.309.084.447l-.003-.008c.053.124.135.237.242.332.099.09.219.162.353.209.154.046.316.063.478.052zm3.85-.042h1.319v.3h-1.722v-2.634h.413l-.01 2.334zm2.692.3h-.413v-2.634h.413v2.634zm1.536-2.622c.025.012.045.028.063.048l1.766 1.986c-.001-.014-.002-.03-.002-.047s.001-.033.002-.049v.002-1.963h.36v2.645h-.222a.2002.2002 0 0 1-.077-.016h.001a.2302.2302 0 0 1-.065-.05l-1.764-1.984v2.048h-.345v-2.634h.215c.024 0 .048.005.069.013h-.001zm5.23-.012v.29h-1.464v.87h1.186v.279h-1.186v.899h1.464v.29h-1.889v-2.628h1.889zM10.782 1.888l18.343 4.497v15.757l-18.343-4.494V1.889zM9.605.545v17.867l20.694 5.074V5.621L9.605.545z"/><path fill="#afb1b8" style="fill:var(--color3, #afb1b8)" d="M20.696 31.781 0 26.702V8.836l20.696 5.076V31.78z"/><path fill="#afb1b8" style="fill:var(--color3, #afb1b8)" d="m9.948 1.686 18.104 4.44-7.699 6.649L2.247 8.333l7.702-6.647zM9.605.545 0 8.837l20.696 5.076 9.603-8.292L9.605.545zm12.256 30.231 8.438-7.287-8.438-2.071v9.358z"/></symbol><symbol id="icon-diagram" viewBox="0 0 32 32"><path fill="#2196f3" style="fill:var(--color2, #2196f3)" d="M14.926 14.965h1.066v4.798h-1.066v-4.797zm4.264 2.132h1.066v2.665H19.19v-2.665zm-8.529 1.599h1.066v1.066h-1.066v-1.066zm-3.198-.533h1.066v1.599H7.463v-1.599z"/><path fill="#212121" style="fill:var(--color1, #212121)" d="M1.599 28.291h25.587c.883 0 1.599-.716 1.599-1.599V24.56c0-.883-.716-1.599-1.599-1.599h-.533V9.668L29.681 6.8c.703.346 1.553.136 2.013-.499s.396-1.508-.152-2.068-1.42-.644-2.065-.198-.873 1.292-.542 2.002L26.654 8.2V6.97c0-.883-.716-1.599-1.599-1.599H3.733c-.883 0-1.599.716-1.599 1.599v15.992h-.533c-.883 0-1.599.716-1.599 1.599v2.132c0 .883.716 1.599 1.599 1.599zM30.384 4.837c.294 0 .533.239.533.533s-.239.533-.533.533c-.294 0-.533-.239-.533-.533s.239-.533.533-.533zM3.198 6.969c0-.294.239-.533.533-.533h21.322c.294 0 .533.239.533.533v2.239l-1.066 1.013V8.035c0-.294-.239-.533-.533-.533H4.797c-.294 0-.533.239-.533.533v13.326c0 .294.239.533.533.533h19.19c.294 0 .533-.239.533-.533v-9.674l1.066-1.01v12.284H3.198V6.969zm4.798 6.93c-.721-.002-1.354.478-1.546 1.174s.105 1.433.725 1.801c.62.368 1.41.276 1.928-.226l1.853.93a.5341.5341 0 0 0 .636-.122v-.001l3.939-4.431 3.872 2.901a.5355.5355 0 0 0 .687-.04l3.365-3.188v8.131H5.331V8.568h18.124v2.66L19.684 14.8l-3.904-2.927a.5332.5332 0 0 0-.718.072l-3.993 4.493-1.493-.746c.01-.056.017-.123.02-.19v-.003c0-.883-.716-1.599-1.599-1.599zm.533 1.599c0 .294-.239.533-.533.533s-.533-.239-.533-.533c0-.294.239-.533.533-.533s.533.239.533.533zm3.198 8.529h5.331v.533c0 .294-.239.533-.533.533h-4.264a.5335.5335 0 0 1-.533-.533v-.533zm-10.661.533c0-.294.239-.533.533-.533h9.062v.533c0 .883.716 1.599 1.599 1.599h4.264c.883 0 1.599-.716 1.599-1.599v-.533h9.062c.294 0 .533.239.533.533v2.132c0 .294-.239.533-.533.533H1.598a.5335.5335 0 0 1-.533-.533V24.56z"/></symbol><symbol id="icon-envelope" viewBox="0 0 43 32"><path fill="#757575" style="fill:var(--color4, #757575)" d="M38.667 0H4C1.795 0 0 1.794 0 4v24c0 2.206 1.794 4 4 4h34.667c2.206 0 4-1.794 4-4V4c0-2.205-1.794-4-4-4zm0 2.667c.184 0 .36.038.52.107l-.009-.003-17.844 15.466L3.489 2.771c.151-.065.327-.103.511-.103h34.667zm0 26.666H4c-.736 0-1.333-.597-1.333-1.333V5.587L20.46 21.008c.232.202.538.325.872.325h.003c.334 0 .64-.123.874-.327l-.002.001L40 5.586v22.413c0 .736-.598 1.333-1.333 1.333z"/></symbol><symbol id="icon-facebook" viewBox="0 0 32 32"><path fill="#afb1b8" style="fill:var(--color3, #afb1b8)" d="M21.329 5.313h2.921V.225C23.746.156 22.013 0 19.994 0c-4.212 0-7.097 2.649-7.097 7.519V12H8.249v5.688h4.648V32h5.699V17.689h4.46l.708-5.688h-5.169V8.082c.001-1.644.444-2.769 2.735-2.769z"/></symbol><symbol id="icon-fast" viewBox="0 0 65 32"><path fill="#2196f3" style="fill:var(--color2, #2196f3)" d="M10.016 9.983h-.002c-1.827 0-3.308 1.316-3.308 2.94v.002c0 1.624 1.481 2.94 3.308 2.94h.002c1.827 0 3.308-1.316 3.308-2.94v-.002c0-1.624-1.481-2.94-3.308-2.94zm24.418-.94c-.005-2.255-1.015-4.417-2.81-6.012S27.398.538 24.86.533c-2.538.004-4.972.902-6.767 2.497s-2.806 3.757-2.811 6.013v12.436s19.149-1.895 19.151-12.434v-.002zM0 25.562c.005 1.569.708 3.073 1.956 4.183s2.94 1.735 4.706 1.74c1.765-.005 3.457-.63 4.705-1.739s1.952-2.613 1.957-4.182V16.91S-.001 18.23-.001 25.562zm6.662 1.55c-.345 0-.682-.091-.969-.261s-.51-.413-.643-.696c-.132-.283-.167-.595-.099-.896s.233-.577.477-.794c.244-.217.555-.364.893-.424s.689-.029 1.008.088c.319.117.591.316.783.571s.294.555.294.861v.003c0 .215-.048.418-.135.6l.004-.009c-.087.189-.216.36-.378.505s-.355.259-.567.338c-.198.075-.428.119-.667.119h-.002v-.006zm13.466-.854h-1.286v1.328h-.67v-3.25h2.116v.542h-1.446v.839h1.286v.54zm3.218-.223c0 .32-.057.6-.17.842s-.275.427-.487.558c-.21.131-.451.196-.723.196-.269 0-.51-.065-.721-.194s-.375-.314-.491-.554c-.116-.241-.175-.518-.176-.83v-.161c0-.32.057-.601.172-.844.116-.244.279-.431.489-.56.211-.131.452-.196.723-.196s.511.065.721.196c.211.129.374.316.489.56.116.242.174.523.174.841v.145zm-.678-.147c0-.341-.061-.6-.183-.777s-.296-.266-.522-.266c-.225 0-.398.088-.52.263-.122.174-.184.43-.185.768v.158c0 .332.061.589.183.772s.298.275.527.275c.225 0 .397-.088.518-.263.121-.177.182-.434.183-.772v-.158zm2.85.846c0-.126-.045-.223-.134-.29-.089-.068-.25-.14-.482-.214-.232-.076-.416-.15-.551-.223-.369-.199-.554-.468-.554-.806 0-.176.049-.332.147-.469.1-.138.242-.246.426-.324.186-.077.394-.116.625-.116.232 0 .439.042.621.127.181.083.322.202.422.355.101.153.152.327.152.522h-.67c0-.149-.047-.264-.141-.346-.094-.083-.225-.125-.395-.125-.164 0-.291.035-.382.105-.091.068-.136.159-.136.272 0 .106.053.194.158.266.107.071.264.138.471.201.381.115.659.257.833.426s.261.381.261.634c0 .281-.106.502-.319.663-.213.159-.499.239-.859.239-.25 0-.478-.045-.683-.136-.205-.092-.362-.218-.471-.377-.107-.159-.161-.344-.161-.554h.672c0 .359.214.538.643.538.159 0 .284-.032.373-.096.089-.065.134-.156.134-.272zm3.574-1.855h-.996v2.708h-.67v-2.708h-.982v-.542h2.647v.542zm2.339 1.299h-1.286v.871h1.509v.538h-2.179v-3.25h2.174v.542h-1.504v.775h1.286v.525zm1.82.218h-.533v1.19h-.67v-3.25h1.208c.384 0 .68.086.888.257s.312.413.312.725c0 .222-.048.407-.145.556-.095.147-.24.265-.435.353l.703 1.328v.031h-.719l-.609-1.19zm-.534-.542h.54c.168 0 .298-.042.391-.127.092-.086.138-.205.138-.355 0-.153-.044-.274-.132-.362-.086-.088-.219-.132-.4-.132h-.538v.975zm4.058.587v1.145h-.67v-3.25h1.268c.244 0 .458.045.643.134.186.089.329.216.429.382.1.164.15.35.15.56 0 .318-.109.57-.328.754-.217.183-.519.275-.904.275h-.587zm0-.542h.598c.177 0 .312-.042.404-.125.094-.083.141-.202.141-.357 0-.159-.047-.288-.141-.386s-.223-.149-.388-.152h-.614v1.02zm4.237.279h-1.286v.871h1.509v.538h-2.179v-3.25h2.174v.542h-1.504v.775h1.286v.525zm3.107-1.299h-.995v2.708h-.67v-2.708h-.982v-.542h2.647v.542zm2.339 1.299h-1.286v.871h1.509v.538h-2.178v-3.25h2.174v.542h-1.504v.775h1.286v.525zm1.819.218h-.533v1.19h-.67v-3.25h1.208c.384 0 .68.086.888.257s.313.413.313.725c0 .222-.048.407-.145.556-.095.147-.24.265-.435.353l.703 1.328v.031h-.719l-.609-1.19zm-.533-.542h.54c.168 0 .298-.042.391-.127.092-.086.138-.205.138-.355 0-.153-.044-.274-.132-.362-.086-.088-.219-.132-.4-.132h-.538v.975zm3.935.88c0-.126-.045-.223-.134-.29-.089-.068-.25-.14-.482-.214-.232-.076-.416-.15-.551-.223-.369-.199-.554-.468-.554-.806 0-.176.049-.332.147-.469.1-.138.242-.246.426-.324.186-.077.394-.116.625-.116.232 0 .439.042.621.127.182.083.322.202.422.355.101.153.152.327.152.522h-.67c0-.149-.047-.264-.141-.346-.094-.083-.225-.125-.395-.125-.164 0-.291.035-.382.105-.091.068-.136.159-.136.272 0 .106.053.194.158.266.107.071.264.138.471.201.381.115.658.257.833.426s.261.381.261.634c0 .281-.106.502-.319.663-.213.159-.499.239-.859.239-.25 0-.478-.045-.683-.136-.205-.092-.362-.218-.471-.377-.107-.159-.161-.344-.161-.554h.672c0 .359.214.538.643.538.159 0 .283-.032.373-.096.089-.065.134-.156.134-.272z"/></symbol><symbol id="icon-group" viewBox="0 0 34 32"><path fill="#afb1b8" style="fill:var(--color3, #afb1b8)" d="M5.643 31.315c.013 0 .025.003.036.007h-.001c.011.004.021.011.029.018l.166.159c-.129.129-.288.231-.467.302-.184.069-.398.109-.62.109-.015 0-.03 0-.045-.001h.002-.034c-.211 0-.414-.037-.602-.105l.012.004c-.178-.065-.338-.162-.47-.285-.134-.128-.237-.278-.303-.44s-.106-.35-.106-.548v-.018.001-.019c0-.198.042-.387.118-.557l-.003.009c.073-.164.182-.314.322-.44.142-.124.312-.222.498-.287.185-.064.399-.101.621-.101h.022-.001.038c.2 0 .392.034.57.096l-.012-.004c.165.062.316.148.447.255l-.139.17a.1429.1429 0 0 1-.035.03h-.001a.0956.0956 0 0 1-.048.013h-.008a.1399.1399 0 0 1-.061-.018h.001l-.075-.045-.104-.058a.9629.9629 0 0 0-.131-.053l-.008-.002a1.2828 1.2828 0 0 0-.18-.044l-.009-.001a1.3601 1.3601 0 0 0-.228-.018h-.02.001-.017c-.159 0-.312.028-.454.079l.009-.003c-.136.048-.26.121-.361.213a.9866.9866 0 0 0-.235.339c-.054.128-.085.277-.085.433v.015-.001.017c0 .158.031.308.088.445l-.003-.008c.051.125.129.239.231.338.095.092.213.163.345.209.136.049.281.073.428.072h.025c.081 0 .16-.005.238-.016l-.009.001a.9887.9887 0 0 0 .389-.124l-.005.003c.062-.036.116-.073.166-.114l-.002.002a.1336.1336 0 0 1 .079-.029zm4.798-.798v.017c0 .197-.041.384-.116.554l.003-.009c-.068.163-.174.311-.313.436s-.306.222-.491.286c-.189.064-.406.101-.631.101s-.443-.037-.646-.105l.014.004a1.454 1.454 0 0 1-.488-.287c-.138-.127-.246-.276-.316-.44-.15-.364-.15-.761 0-1.125.071-.164.178-.314.316-.442.139-.12.305-.214.488-.276.188-.065.406-.103.632-.103s.443.038.646.107l-.014-.004c.185.065.351.163.49.287.137.125.243.273.314.435.077.181.115.372.112.565zm-.436 0v-.024c0-.154-.029-.301-.082-.435l.003.008c-.047-.125-.122-.239-.222-.338a.971.971 0 0 0-.351-.213c-.137-.047-.295-.074-.459-.074s-.322.027-.469.077l.01-.003a.971.971 0 0 0-.351.213c-.101.097-.178.212-.224.338-.05.134-.079.289-.079.451s.029.317.082.46l-.003-.009c.047.125.123.24.224.338.098.092.217.164.351.211.137.046.295.072.459.072s.322-.026.47-.075l-.011.003c.134-.047.254-.119.351-.211a.933.933 0 0 0 .222-.338c.05-.126.079-.273.079-.426v-.027.001zm3.71.473.044.101c.017-.036.031-.069.048-.101a.974.974 0 0 1 .056-.103l-.002.004 1.062-1.677c.021-.029.039-.047.06-.052s.047-.009.072-.009h.016-.001.314v2.727h-.372v-2.09c-.001-.014-.002-.03-.002-.047s.001-.033.002-.049v.002l-1.068 1.7a.1606.1606 0 0 1-.062.062h-.001a.1898.1898 0 0 1-.089.023h-.065a.1787.1787 0 0 1-.089-.023h.001a.1483.1483 0 0 1-.062-.062v-.001l-1.099-1.711v2.189h-.359v-2.722h.329c.026 0 .051.003.074.01h-.002c.025.011.045.029.058.052v.001l1.084 1.678c.02.028.038.06.053.094l.001.004zm3.995-.135v1.021h-.415v-2.723H18.255c.172 0 .338.022.497.063l-.014-.003c.134.033.259.091.366.17.092.074.163.165.208.267a.825.825 0 0 1 .071.348v.01c0 .123-.028.239-.079.343l.002-.005a.7696.7696 0 0 1-.224.273c-.104.08-.227.142-.36.179l-.007.002c-.14.04-.301.063-.467.063h-.035.002l-.503-.007zm0-.293h.517c.11 0 .215-.015.316-.044l-.008.002a.681.681 0 0 0 .234-.119l-.002.001c.06-.048.108-.108.14-.177l.001-.003c.032-.065.05-.142.05-.223v-.007c.001-.009.001-.018.001-.028 0-.07-.016-.137-.044-.196l.001.003a.5287.5287 0 0 0-.144-.185l-.001-.001c-.159-.108-.358-.16-.559-.146h-.503v1.122zm5.584 1.318h-.334a.1504.1504 0 0 1-.086-.026h.001a.1785.1785 0 0 1-.054-.062v-.001l-.282-.659H21.12l-.293.659a.1607.1607 0 0 1-.051.061.1553.1553 0 0 1-.088.027h-.334l1.246-2.727h.432l1.263 2.727zm-2.057-1.013h1.172l-.494-1.11a1.684 1.684 0 0 1-.09-.244l-.003-.013-.048.143a1.166 1.166 0 0 1-.049.123l.003-.008-.49 1.108zm3.852-1.702c.025.012.046.028.062.048l1.818 2.056v-2.117h.372v2.727h-.214a.1992.1992 0 0 1-.081-.017h.001a.2214.2214 0 0 1-.066-.05l-1.816-2.054c.001.014.002.03.002.047s-.001.033-.002.049v-.002 2.027h-.372v-2.727h.225c.025 0 .049.005.071.013h-.001zm5.313 1.63v1.083h-.415v-1.083l-1.149-1.642h.381c.03 0 .058.009.081.024h-.001c.022.017.041.037.055.06l.001.001.719 1.059c.029.045.054.087.075.126s.037.078.052.116l.054-.117a.913.913 0 0 1 .073-.128l-.002.003.708-1.067a.2891.2891 0 0 1 .053-.057h.001a.1375.1375 0 0 1 .083-.027h.383l-1.151 1.65zM13.51 24.576c.181.02.364.036.548.051 2.803-1.089 5.174-2.873 6.817-5.126s2.485-4.878 2.421-7.546l-3.089-2.684c.628 2.84.334 5.776-.849 8.479s-3.208 5.067-5.849 6.827z"/><path fill="#afb1b8" style="fill:var(--color3, #afb1b8)" d="m12.407 24.451.083.014c2.822-1.754 4.974-4.203 6.176-7.03s1.402-5.904.571-8.83l-4.4-3.823c1.78 3.142 2.496 6.659 2.066 10.141s-1.989 6.786-4.496 9.528zm14.921-9.345c-.747 2.931-2.563 5.574-5.177 7.537-.763.576-1.587 1.09-2.46 1.534 2.128-.544 4.085-1.504 5.718-2.809s2.9-2.917 3.703-4.714l-1.784-1.549z"/><path fill="#afb1b8" style="fill:var(--color3, #afb1b8)" d="m26.628 14.674-2.541-2.207c-.049 2.517-.872 4.976-2.385 7.123s-3.66 3.902-6.217 5.084h.012c.601 0 1.194-.032 1.778-.095l-.073.006c2.39-.848 4.502-2.196 6.147-3.926s2.771-3.785 3.278-5.985zM12.774 3.17 9.743.533c-2.709.91-5.04 2.509-6.686 4.588S.526 9.663.517 12.187c.01 2.789 1.09 5.495 3.07 7.69s4.745 3.754 7.859 4.43c2.78-2.942 4.407-6.579 4.646-10.38s-.924-7.569-3.319-10.757zM33.63 14.268c-.011-3.309-1.529-6.479-4.221-8.818s-6.342-3.658-10.15-3.668c-1.76-.002-3.504.281-5.146.832L32.67 18.737c.635-1.425.961-2.94.96-4.469z"/></symbol><symbol id="icon-instagram" viewBox="0 0 32 32"><path fill="#afb1b8" style="fill:var(--color3, #afb1b8)" d="M31.969 9.408c-.075-1.7-.35-2.869-.744-3.882-.406-1.075-1.032-2.038-1.851-2.838A7.8895 7.8895 0 0 0 26.596.862l-.054-.018C25.523.45 24.36.175 22.66.1 20.947.019 20.403 0 16.059 0s-4.888.019-6.595.094c-1.7.075-2.869.35-3.882.744-1.075.406-2.038 1.031-2.838 1.85A7.8895 7.8895 0 0 0 .918 5.466L.9 5.52C.506 6.539.231 7.701.156 9.402c-.081 1.713-.1 2.257-.1 6.602s.019 4.888.094 6.595c.075 1.7.35 2.869.744 3.882.427 1.11 1.056 2.057 1.849 2.837l.001.001c.78.792 1.724 1.419 2.778 1.826l.054.018c1.019.394 2.182.669 3.882.744 1.706.075 2.25.094 6.595.094s4.888-.019 6.595-.094c1.7-.075 2.869-.35 3.882-.744 2.157-.85 3.832-2.525 4.663-4.627l.019-.055c.394-1.019.669-2.182.744-3.882.075-1.707.094-2.251.094-6.595s-.006-4.888-.081-6.595zm-2.882 13.065c-.069 1.563-.331 2.407-.55 2.969-.551 1.4-1.639 2.487-3.002 3.026l-.036.013c-.563.219-1.413.481-2.969.55-1.688.075-2.194.094-6.464.094s-4.782-.019-6.464-.094c-1.563-.069-2.407-.331-2.969-.55-.694-.256-1.325-.663-1.838-1.194a4.9797 4.9797 0 0 1-1.183-1.804l-.011-.034c-.219-.563-.481-1.413-.55-2.969-.075-1.688-.094-2.194-.094-6.464s.019-4.782.094-6.464c.069-1.563.331-2.407.55-2.969.256-.694.663-1.325 1.2-1.838a4.9797 4.9797 0 0 1 1.804-1.183l.034-.011c.563-.219 1.413-.481 2.969-.55 1.688-.075 2.194-.094 6.464-.094 4.276 0 4.782.019 6.464.094 1.563.069 2.407.331 2.969.55.694.256 1.325.662 1.838 1.194.531.519.938 1.144 1.194 1.838.219.563.481 1.413.55 2.969.075 1.688.094 2.194.094 6.464s-.019 4.77-.094 6.458z"/><path fill="#afb1b8" style="fill:var(--color3, #afb1b8)" d="M16.059 7.783c-4.538 0-8.22 3.682-8.22 8.22s3.682 8.22 8.22 8.22c4.539 0 8.22-3.682 8.22-8.22s-3.682-8.22-8.22-8.22zm0 13.552c-2.944 0-5.332-2.388-5.332-5.332s2.388-5.332 5.332-5.332 5.332 2.388 5.332 5.332-2.388 5.332-5.332 5.332zM26.524 7.458c0 1.06-.859 1.919-1.919 1.919s-1.919-.859-1.919-1.919.859-1.919 1.919-1.919 1.919.859 1.919 1.919z"/></symbol><symbol id="icon-linkedin" viewBox="0 0 32 32"><path fill="#afb1b8" style="fill:var(--color3, #afb1b8)" d="M31.992 32v-.001H32V20.263c0-5.741-1.236-10.164-7.948-10.164-3.227 0-5.392 1.771-6.276 3.449h-.093v-2.913h-6.364v21.364h6.627V21.42c0-2.785.528-5.479 3.977-5.479 3.399 0 3.449 3.179 3.449 5.657v10.401h6.62zM.528 10.636h6.635V32H.528V10.636zM3.843 0C1.722 0 0 1.721 0 3.843s1.721 3.879 3.843 3.879c2.121 0 3.843-1.757 3.843-3.879C7.685 1.722 5.963 0 3.843 0z"/></symbol><symbol id="icon-smartphone" viewBox="0 0 20 32"><path fill="#757575" style="fill:var(--color4, #757575)" d="M17 0H3C1.346 0 0 1.346 0 3v26c0 1.654 1.346 3 3 3h14c1.654 0 3-1.346 3-3V3c0-1.654-1.346-3-3-3zM3 2h14c.552 0 1 .448 1 1v21H2V3c0-.552.448-1 1-1zm14 28H3c-.552 0-1-.448-1-1v-3h16v3c0 .552-.448 1-1 1z"/><path fill="#757575" style="fill:var(--color4, #757575)" d="M4.707 27.478c.391.365.391.956 0 1.321s-1.024.365-1.414 0c-.391-.365-.391-.956 0-1.321s1.024-.365 1.414 0z"/></symbol><symbol id="icon-twitter" viewBox="0 0 32 32"><path fill="#afb1b8" style="fill:var(--color3, #afb1b8)" d="M32 6.078c-1.19.522-2.458.868-3.78 1.036 1.36-.812 2.398-2.088 2.886-3.626-1.268.756-2.668 1.29-4.16 1.588C25.742 3.794 24.026 3 22.154 3c-3.632 0-6.556 2.948-6.556 6.562 0 .52.044 1.02.152 1.496-5.454-.266-10.28-2.88-13.522-6.862-.566.982-.898 2.106-.898 3.316 0 2.272 1.17 4.286 2.914 5.452-1.054-.02-2.088-.326-2.964-.808v.072c0 3.188 2.274 5.836 5.256 6.446-.534.146-1.116.216-1.72.216-.42 0-.844-.024-1.242-.112.85 2.598 3.262 4.508 6.13 4.57-2.214 1.744-5.044 2.798-8.12 2.798h-.015.001c-.538 0-1.054-.024-1.57-.09C2.906 27.93 6.35 29 10.064 29c12.072 0 18.672-10 18.672-18.668 0-.29-.01-.57-.024-.848C30.014 8.56 31.108 7.406 32 6.078z"/></symbol><symbol id="icon-ysg" viewBox="0 0 28 32"><path fill="#afb1b8" style="fill:var(--color3, #afb1b8)" d="m4.085 0 4.771 4.517L0 4.512v21.915h23.149v-8.379l4.766 4.512V.001H4.085zm18.854 17.517L9.411 4.71h13.528v12.807zm-4.2 5.704H3.663V8.482h1.066v13.741h14.01v.998zM7.223 29.344l-.557 1.147-.557-1.147h-.467l.813 1.529v.891h.422v-.891l.811-1.529h-.465zm.7 2.42.196-.563h.938l.198.563h.439l-.916-2.42h-.377l-.914 2.42h.437zm.665-1.906.351 1.004h-.701l.351-1.004zm2.217.946a.5473.5473 0 0 0-.091.304v.004c0 .204.072.37.214.497.144.126.336.189.575.189s.445-.065.618-.194l.136.161h.469l-.356-.421c.14-.191.209-.435.209-.733h-.351c0 .163-.034.311-.101.444l-.467-.552.165-.12c.116-.084.2-.168.251-.253a.53.53 0 0 0 .076-.275v-.004c0-.153-.056-.281-.17-.384-.112-.104-.256-.156-.432-.156-.195 0-.35.055-.465.166-.115.11-.173.259-.173.449 0 .078.018.158.055.241.038.083.104.184.198.303-.18.129-.3.24-.361.334zm1.092.535c-.119.091-.246.136-.382.136-.121 0-.217-.035-.289-.105s-.108-.161-.108-.273c0-.13.067-.245.2-.346l.052-.037.529.623zm-.434-1.072c-.114-.141-.171-.258-.171-.351 0-.081.023-.148.07-.201s.109-.08.188-.08c.073 0 .133.023.181.068.048.044.072.098.072.161 0 .095-.034.173-.103.234l-.052.042-.184.126zm3.94 1.314c.166-.145.262-.347.286-.605h-.419c-.022.173-.075.296-.158.371s-.207.111-.372.111c-.181 0-.318-.069-.412-.206-.093-.137-.14-.337-.14-.598v-.214c.002-.258.052-.454.15-.587.099-.134.239-.201.422-.201.157 0 .277.039.357.116.082.076.133.202.153.376h.419c-.027-.265-.121-.47-.284-.615s-.378-.218-.645-.218c-.198 0-.373.047-.525.141-.151.094-.267.228-.347.402s-.121.375-.121.603v.226c.003.223.045.418.125.587s.193.299.339.391c.147.091.317.136.51.136.276 0 .497-.072.663-.216zm2.472-.339c.082-.18.123-.388.123-.625v-.135c-.001-.236-.043-.443-.126-.62-.083-.178-.201-.315-.354-.409-.152-.095-.326-.143-.524-.143s-.372.048-.525.145c-.152.095-.27.233-.354.414-.083.181-.125.389-.125.625v.136c.001.232.043.436.126.613.084.177.203.314.356.411.154.095.329.143.525.143.198 0 .373-.048.525-.143.153-.096.27-.234.352-.412zm-.451-1.368c.102.143.153.349.153.617v.126c0 .273-.05.48-.151.622-.1.142-.243.213-.429.213-.184 0-.328-.073-.432-.218-.103-.145-.155-.351-.155-.617v-.14c.002-.26.054-.462.156-.603.103-.143.245-.214.427-.214.186 0 .33.072.43.214z"/></symbol></defs></svg>